<svg width="237" height="74" viewBox="0 0 237 74" fill="none" xmlns="http://www.w3.org/2000/svg">
<rect width="237" height="74" rx="11" fill="#04B1D7"/>
<path d="M85.6371 27.7997H88.8653L92.5959 40.4531L96.314 27.7997H99.1653L93.9651 46.2971H91.2142L85.6371 27.7997ZM84.3308 27.7997H87.4082L87.8856 39.9958V46.2971H84.3308V27.7997ZM97.7585 27.7997H100.848V46.2971H97.3063V39.9958L97.7585 27.7997Z" fill="white"/>
<path d="M108.624 46.2971H105.396L105.421 43.2227H108.624C109.511 43.2227 110.202 43.0617 110.696 42.7399C111.19 42.4181 111.538 41.9099 111.739 41.2154C111.948 40.5209 112.053 39.6104 112.053 38.484V35.6001C112.053 34.7447 111.998 34.0206 111.89 33.4277C111.781 32.8264 111.596 32.3436 111.337 31.9794C111.077 31.6068 110.73 31.3315 110.294 31.1536C109.859 30.9758 109.319 30.8868 108.674 30.8868H105.333V27.7997H108.674C109.729 27.7997 110.688 27.9733 111.55 28.3206C112.413 28.6678 113.154 29.176 113.774 29.8451C114.393 30.5057 114.871 31.323 115.206 32.297C115.541 33.271 115.708 34.3805 115.708 35.6255V38.484C115.708 39.7375 115.541 40.847 115.206 41.8125C114.871 42.778 114.393 43.5953 113.774 44.2644C113.162 44.925 112.421 45.429 111.55 45.7762C110.68 46.1235 109.704 46.2971 108.624 46.2971ZM107.531 27.7997V46.2971H103.851V27.7997H107.531Z" fill="white"/>
<path d="M127.113 40.1355H130.769C130.718 41.5245 130.442 42.6975 129.94 43.6546C129.437 44.6032 128.721 45.3231 127.792 45.8143C126.871 46.3055 125.757 46.5512 124.451 46.5512C123.437 46.5512 122.537 46.3818 121.75 46.043C120.963 45.6957 120.293 45.1876 119.74 44.5185C119.187 43.8494 118.769 43.0236 118.484 42.0412C118.208 41.0502 118.07 39.9111 118.07 38.6237V35.4858C118.07 34.1984 118.216 33.0593 118.509 32.0683C118.811 31.0774 119.238 30.2474 119.79 29.5783C120.351 28.9008 121.026 28.3926 121.813 28.0538C122.608 27.7066 123.504 27.5329 124.501 27.5329C125.832 27.5329 126.946 27.787 127.842 28.2952C128.738 28.8034 129.429 29.5444 129.915 30.5184C130.409 31.4839 130.706 32.6654 130.806 34.0629H127.139C127.113 33.1821 127.013 32.4918 126.837 31.9921C126.67 31.4839 126.402 31.1282 126.033 30.925C125.665 30.7132 125.154 30.6074 124.501 30.6074C124.015 30.6074 123.596 30.6963 123.245 30.8741C122.893 31.0435 122.604 31.3188 122.378 31.6999C122.152 32.081 121.984 32.5807 121.876 33.199C121.775 33.8173 121.725 34.5711 121.725 35.4604V38.6237C121.725 39.4961 121.771 40.2414 121.863 40.8597C121.955 41.4695 122.102 41.9692 122.303 42.3588C122.504 42.7484 122.776 43.0321 123.119 43.21C123.471 43.3878 123.915 43.4767 124.451 43.4767C125.07 43.4767 125.568 43.3836 125.945 43.1972C126.33 43.0109 126.615 42.6764 126.799 42.1936C126.984 41.7109 127.088 41.0248 127.113 40.1355Z" fill="white"/>
<path d="M144.297 46.5512C143.367 46.5512 142.542 46.4072 141.822 46.1192C141.111 45.8313 140.508 45.4163 140.014 44.8742C139.519 44.3237 139.143 43.6588 138.883 42.8796C138.623 42.1004 138.494 41.2112 138.494 40.2118V39.0811C138.494 37.9631 138.619 36.9849 138.87 36.1464C139.122 35.2994 139.478 34.588 139.938 34.0121C140.399 33.4362 140.964 33.0085 141.634 32.729C142.312 32.441 143.078 32.297 143.933 32.297C144.787 32.297 145.536 32.441 146.181 32.729C146.834 33.0085 147.374 33.4319 147.801 33.9994C148.228 34.5584 148.551 35.2529 148.769 36.0829C148.986 36.9129 149.095 37.8784 149.095 38.9794V40.6056H139.988V38.1029H145.641V37.7852C145.641 37.2263 145.582 36.7604 145.465 36.3878C145.348 36.0067 145.164 35.7229 144.912 35.5366C144.661 35.3503 144.326 35.2571 143.907 35.2571C143.556 35.2571 143.258 35.3291 143.016 35.4731C142.773 35.6171 142.58 35.8415 142.438 36.1464C142.295 36.4513 142.191 36.8494 142.124 37.3406C142.057 37.8234 142.023 38.4035 142.023 39.0811V40.2118C142.023 40.847 142.078 41.3805 142.187 41.8125C142.295 42.236 142.455 42.5832 142.664 42.8542C142.882 43.1168 143.145 43.3074 143.455 43.4259C143.765 43.536 144.125 43.5911 144.535 43.5911C145.155 43.5911 145.712 43.481 146.206 43.2608C146.709 43.0321 147.136 42.723 147.487 42.3334L148.894 44.4931C148.651 44.8149 148.316 45.1368 147.889 45.4586C147.462 45.7804 146.951 46.043 146.357 46.2463C145.762 46.4495 145.076 46.5512 144.297 46.5512Z" fill="white"/>
<path d="M158.541 27.7997H161.769L165.5 40.4531L169.218 27.7997H172.069L166.869 46.2971H164.118L158.541 27.7997ZM157.235 27.7997H160.312L160.789 39.9958V46.2971H157.235V27.7997ZM170.662 27.7997H173.752V46.2971H170.21V39.9958L170.662 27.7997Z" fill="white"/>
<path d="M178.061 27.7997H181.289L185.019 40.4531L188.737 27.7997H191.589L186.389 46.2971H183.638L178.061 27.7997ZM176.754 27.7997H179.832L180.309 39.9958V46.2971H176.754V27.7997ZM190.182 27.7997H193.272V46.2971H189.73V39.9958L190.182 27.7997Z" fill="white"/>
<path d="M204.991 40.1355H208.647C208.596 41.5245 208.32 42.6975 207.818 43.6546C207.315 44.6032 206.599 45.3231 205.67 45.8143C204.748 46.3055 203.635 46.5512 202.328 46.5512C201.315 46.5512 200.415 46.3818 199.628 46.043C198.841 45.6957 198.171 45.1876 197.618 44.5185C197.065 43.8494 196.647 43.0236 196.362 42.0412C196.086 41.0502 195.947 39.9111 195.947 38.6237V35.4858C195.947 34.1984 196.094 33.0593 196.387 32.0683C196.689 31.0774 197.116 30.2474 197.668 29.5783C198.229 28.9008 198.903 28.3926 199.691 28.0538C200.486 27.7066 201.382 27.5329 202.379 27.5329C203.71 27.5329 204.824 27.787 205.72 28.2952C206.616 28.8034 207.307 29.5444 207.792 30.5184C208.286 31.4839 208.584 32.6654 208.684 34.0629H205.016C204.991 33.1821 204.891 32.4918 204.715 31.9921C204.548 31.4839 204.28 31.1282 203.911 30.925C203.543 30.7132 203.032 30.6074 202.379 30.6074C201.893 30.6074 201.474 30.6963 201.123 30.8741C200.771 31.0435 200.482 31.3188 200.256 31.6999C200.03 32.081 199.862 32.5807 199.753 33.199C199.653 33.8173 199.603 34.5711 199.603 35.4604V38.6237C199.603 39.4961 199.649 40.2414 199.741 40.8597C199.833 41.4695 199.98 41.9692 200.18 42.3588C200.381 42.7484 200.654 43.0321 200.997 43.21C201.349 43.3878 201.792 43.4767 202.328 43.4767C202.948 43.4767 203.446 43.3836 203.823 43.1972C204.208 43.0109 204.493 42.6764 204.677 42.1936C204.862 41.7109 204.966 41.0248 204.991 40.1355Z" fill="white"/>
<path d="M57.224 13.1005H28.5442C25.5437 13.1005 23.1049 15.5561 23.1049 18.5774V55.4225C23.1049 58.4438 25.5437 60.8995 28.5442 60.8995H57.224C60.2245 60.8995 62.6632 58.4438 62.6632 55.4225V18.5774C62.6632 15.5561 60.2245 13.1005 57.224 13.1005ZM38.4931 50.3837C39.0726 50.9673 39.0726 51.9133 38.4931 52.4968C38.2043 52.7876 37.8246 52.933 37.4448 52.933C37.065 52.933 36.6853 52.7876 36.3965 52.4949L34.9724 51.0629L33.5483 52.4968C33.2595 52.7876 32.8798 52.933 32.5 52.933C32.1202 52.933 31.7405 52.7876 31.4517 52.4949C30.8722 51.9113 30.8722 50.9653 31.4517 50.3817L32.8738 48.9498L31.4497 47.5158C30.8702 46.9322 30.8702 45.9862 31.4497 45.4027C32.0293 44.8191 32.9688 44.8191 33.5483 45.4027L34.9724 46.8366L36.3965 45.4027C36.976 44.8191 37.9155 44.8191 38.4951 45.4027C39.0746 45.9862 39.0746 46.9322 38.4951 47.5158L37.071 48.9498L38.4931 50.3837ZM37.4448 38.4937H36.4558V39.4895C36.4558 40.3141 35.7913 40.9832 34.9724 40.9832C34.1535 40.9832 33.489 40.3141 33.489 39.4895V38.4937H32.5C31.6811 38.4937 31.0166 37.8245 31.0166 37C31.0166 36.1755 31.6811 35.5063 32.5 35.5063H33.489V34.5105C33.489 33.6859 34.1535 33.0167 34.9724 33.0167C35.7913 33.0167 36.4558 33.6859 36.4558 34.5105V35.5063H37.4448C38.2636 35.5063 38.9282 36.1755 38.9282 37C38.9282 37.8245 38.2636 38.4937 37.4448 38.4937ZM53.2681 52.933H48.3233C47.5045 52.933 46.8399 52.2638 46.8399 51.4393C46.8399 50.6148 47.5045 49.9456 48.3233 49.9456H53.2681C54.087 49.9456 54.7516 50.6148 54.7516 51.4393C54.7516 52.2638 54.087 52.933 53.2681 52.933ZM53.2681 47.9539H48.3233C47.5045 47.9539 46.8399 47.2848 46.8399 46.4602C46.8399 45.6357 47.5045 44.9665 48.3233 44.9665H53.2681C54.087 44.9665 54.7516 45.6357 54.7516 46.4602C54.7516 47.2848 54.087 47.9539 53.2681 47.9539ZM53.2681 38.9916H48.3233C47.5045 38.9916 46.8399 38.3224 46.8399 37.4979C46.8399 36.6734 47.5045 36.0042 48.3233 36.0042H53.2681C54.087 36.0042 54.7516 36.6734 54.7516 37.4979C54.7516 38.3224 54.087 38.9916 53.2681 38.9916ZM56.7295 25.5481C56.7295 27.4701 55.1768 29.0335 53.2681 29.0335H32.5C30.5913 29.0335 29.0386 27.4701 29.0386 25.5481V22.5607C29.0386 20.6388 30.5913 19.0753 32.5 19.0753H53.2681C55.1768 19.0753 56.7295 20.6388 56.7295 22.5607V25.5481Z" fill="white"/>
</svg>
