<svg width="256" height="256" viewBox="0 0 256 256" fill="none" xmlns="http://www.w3.org/2000/svg">
<g clip-path="url(#clip0_602_3)">
<path d="M206.428 87.9503L140.975 105.488L123.437 40.0355C120.811 30.2362 110.739 24.4209 100.939 27.0466C91.1399 29.6723 85.3246 39.7447 87.9503 49.5441L105.488 114.997L40.0355 132.535C30.2361 135.161 24.4209 145.233 27.0466 155.032C29.6723 164.832 39.7447 170.647 49.5441 168.021L114.997 150.483L132.535 215.936C135.161 225.736 145.233 231.551 155.032 228.925C164.832 226.299 170.647 216.227 168.021 206.428L150.483 140.975L215.936 123.437C225.736 120.811 231.551 110.739 228.925 100.939C226.299 91.1399 216.227 85.3246 206.428 87.9503Z" fill="white" fill-opacity="0.05"/>
</g>
<defs>
<clipPath id="clip0_602_3">
<rect width="209" height="209" fill="white" transform="translate(0 54.0932) rotate(-15)"/>
</clipPath>
</defs>
</svg>
